# xmcd
#
# Track frame offsets:
#	150
#	22818
#	45514
#	71122
#	116455
#	134429
#	150922
#	170977
#	197663
#	218995
#
# Disc length: 3296 seconds
#
# Revision: 0
# Processed by: cddbd v1.4PL0 Copyright (c) Steve Scherf et al.
# Submitted via: EasyCDDAExtractor 5.0.5.1
#
DISCID=880cde0a
DTITLE=Garrett "Big G" Jacobson - That Funky Thang
DYEAR=2002
DGENRE=Blues
TTITLE0=That Funky Thang
TTITLE1=I Saw Her Leavin' Me
TTITLE2=Shakey Ground
TTITLE3=Dry Ice
TTITLE4=Gotta Feel the Funk
TTITLE5=Business With My Baby Tonight
TTITLE6=Keep On Goin'
TTITLE7=Walking the Back Streets and Crying
TTITLE8=G's Thang
TTITLE9=Soulful Groove
EXTD=
EXTT0=
EXTT1=
EXTT2=
EXTT3=
EXTT4=
EXTT5=
EXTT6=
EXTT7=
EXTT8=
EXTT9=
PLAYORDER=
